<?xml version="1.0" encoding="utf-8"?>
<!-- Generator: Adobe Illustrator 21.0.2, SVG Export Plug-In . SVG Version: 6.00 Build 0)  -->
<svg version="1.1" id="Capa_1" xmlns="http://www.w3.org/2000/svg" xmlns:xlink="http://www.w3.org/1999/xlink" x="0px" y="0px"
	 viewBox="0 0 512 512" style="enable-background:new 0 0 512 512;" xml:space="preserve">
<style type="text/css">
	.st0{fill:#82C785;}
</style>
<g>
	<path class="st0" d="M491.7,156.7C478.1,125.1,459.9,97.9,437,75c-22.9-22.9-50.1-41.1-81.7-54.7C323.8,6.8,290.7,0,256,0
		c-32.7,0-64.3,6.2-94.8,18.5c-30.6,12.3-57.7,29.7-81.5,52.2l-43.3-43c-6.7-6.9-14.3-8.4-23-4.7C4.4,26.8,0,33.3,0,42.7V192
		c0,5.8,2.1,10.8,6.3,15c4.2,4.2,9.2,6.3,15,6.3h149.3c9.3,0,15.9-4.4,19.7-13.3c3.8-8.7,2.2-16.3-4.7-23L140,131
		c15.6-14.7,33.3-25.9,53.3-33.8c20-7.9,40.9-11.8,62.7-11.8c23.1,0,45.2,4.5,66.2,13.5c21,9,39.2,21.2,54.5,36.5
		c15.3,15.3,27.5,33.5,36.5,54.5c9,21,13.5,43.1,13.5,66.2c0,23.1-4.5,45.2-13.5,66.2c-9,21-21.2,39.2-36.5,54.5
		c-15.3,15.3-33.5,27.5-54.5,36.5c-21,9-43.1,13.5-66.2,13.5c-26.4,0-51.4-5.8-75-17.3c-23.6-11.6-43.4-27.9-59.7-49
		c-1.6-2.2-4.1-3.6-7.7-4c-3.3,0-6.1,1-8.3,3l-45.7,46c-1.8,1.8-2.7,4.1-2.8,6.8c-0.1,2.8,0.6,5.3,2.2,7.5
		c24.2,29.3,53.6,52.1,88,68.2c34.4,16.1,70.8,24.2,109,24.2c34.7,0,67.8-6.8,99.3-20.3c31.6-13.6,58.8-31.8,81.7-54.7
		c22.9-22.9,41.1-50.1,54.7-81.7c13.6-31.6,20.3-64.7,20.3-99.3C512,221.3,505.2,188.2,491.7,156.7z"/>
</g>
<g>
	<g>
		<path d="M219.9,218.9v-40.6h-15.1v-5.4h36.4v5.4H226v40.6H219.9z"/>
		<path d="M262.4,208.2l5.8,0.7c-0.9,3.4-2.6,6.1-5.1,7.9c-2.5,1.9-5.7,2.8-9.5,2.8c-4.9,0-8.7-1.5-11.6-4.5
			c-2.9-3-4.3-7.2-4.3-12.6c0-5.6,1.4-10,4.3-13c2.9-3.1,6.6-4.6,11.2-4.6c4.5,0,8.1,1.5,10.9,4.5c2.8,3,4.2,7.3,4.2,12.8
			c0,0.3,0,0.8,0,1.5h-24.8c0.2,3.7,1.2,6.5,3.1,8.4c1.9,1.9,4.2,2.9,7,2.9c2.1,0,3.8-0.5,5.3-1.6
			C260.4,212.3,261.5,210.6,262.4,208.2z M243.9,199.1h18.6c-0.3-2.8-1-4.9-2.1-6.3c-1.8-2.2-4.1-3.3-7-3.3c-2.6,0-4.8,0.9-6.5,2.6
			C245,193.8,244,196.2,243.9,199.1z"/>
		<path d="M273.1,209l5.6-0.9c0.3,2.2,1.2,4,2.6,5.1s3.4,1.8,6,1.8c2.6,0,4.5-0.5,5.8-1.6c1.3-1.1,1.9-2.3,1.9-3.7
			c0-1.3-0.6-2.3-1.7-3c-0.8-0.5-2.7-1.1-5.8-1.9c-4.1-1-7-1.9-8.6-2.7c-1.6-0.8-2.8-1.8-3.6-3.2c-0.8-1.3-1.2-2.8-1.2-4.5
			c0-1.5,0.3-2.9,1-4.1c0.7-1.3,1.6-2.3,2.8-3.2c0.9-0.6,2.1-1.2,3.6-1.6c1.5-0.4,3.1-0.7,4.9-0.7c2.6,0,4.9,0.4,6.9,1.1
			c2,0.8,3.4,1.8,4.4,3.1c0.9,1.3,1.6,3,1.9,5.2l-5.5,0.8c-0.3-1.7-1-3.1-2.2-4c-1.2-1-2.9-1.4-5.1-1.4c-2.6,0-4.4,0.4-5.6,1.3
			c-1.1,0.9-1.7,1.9-1.7,3c0,0.7,0.2,1.4,0.7,2c0.5,0.6,1.2,1.1,2.2,1.5c0.6,0.2,2.2,0.7,5,1.4c4,1.1,6.8,1.9,8.4,2.6
			c1.6,0.7,2.8,1.7,3.7,3c0.9,1.3,1.3,2.9,1.3,4.8c0,1.9-0.5,3.7-1.6,5.3c-1.1,1.7-2.7,2.9-4.8,3.9c-2.1,0.9-4.4,1.4-7,1.4
			c-4.3,0-7.6-0.9-9.9-2.7C275.1,215.2,273.7,212.5,273.1,209z"/>
		<path d="M319.8,213.9l0.8,5c-1.6,0.3-3,0.5-4.3,0.5c-2,0-3.6-0.3-4.8-1c-1.1-0.6-1.9-1.5-2.4-2.6c-0.5-1.1-0.7-3.3-0.7-6.7V190
			h-4.1v-4.4h4.1v-8.2l5.6-3.4v11.6h5.7v4.4h-5.7v19.5c0,1.6,0.1,2.6,0.3,3.1s0.5,0.8,1,1.1c0.4,0.3,1.1,0.4,1.9,0.4
			C317.9,214.1,318.7,214,319.8,213.9z"/>
	</g>
	<g>
		<path d="M182.3,272.4c-2.1,1.8-4.1,3-6,3.8c-1.9,0.7-4,1.1-6.2,1.1c-3.7,0-6.5-0.9-8.4-2.7c-2-1.8-2.9-4.1-2.9-6.9
			c0-1.6,0.4-3.1,1.1-4.5c0.7-1.3,1.7-2.4,2.9-3.2c1.2-0.8,2.6-1.4,4.1-1.9c1.1-0.3,2.8-0.6,5-0.8c4.6-0.5,7.9-1.2,10.1-1.9
			c0-0.8,0-1.3,0-1.5c0-2.3-0.5-3.9-1.6-4.9c-1.4-1.3-3.6-1.9-6.4-1.9c-2.7,0-4.6,0.5-5.9,1.4c-1.3,0.9-2.2,2.6-2.8,4.9l-5.5-0.8
			c0.5-2.4,1.3-4.3,2.5-5.7c1.1-1.5,2.8-2.6,5-3.4c2.2-0.8,4.7-1.2,7.6-1.2c2.8,0,5.2,0.3,6.9,1c1.8,0.7,3.1,1.5,3.9,2.5
			c0.8,1,1.4,2.3,1.8,3.8c0.2,1,0.3,2.7,0.3,5.2v7.5c0,5.2,0.1,8.6,0.4,10c0.2,1.4,0.7,2.7,1.4,4h-5.9
			C182.8,275.4,182.4,274,182.3,272.4z M181.8,259.8c-2,0.8-5.1,1.5-9.2,2.1c-2.3,0.3-4,0.7-4.9,1.1c-1,0.4-1.7,1-2.2,1.8
			c-0.5,0.8-0.8,1.7-0.8,2.7c0,1.5,0.6,2.8,1.7,3.8c1.1,1,2.8,1.5,5,1.5c2.2,0,4.1-0.5,5.8-1.4c1.7-1,2.9-2.3,3.7-3.9
			c0.6-1.3,0.9-3.2,0.9-5.6V259.8z"/>
		<path d="M196.3,276.6v-33.3h5.1v4.7c2.4-3.7,6-5.5,10.6-5.5c2,0,3.9,0.4,5.5,1.1c1.7,0.7,2.9,1.7,3.8,2.8c0.8,1.2,1.4,2.6,1.8,4.2
			c0.2,1,0.3,2.9,0.3,5.5v20.5h-5.6v-20.3c0-2.3-0.2-4-0.7-5.2c-0.4-1.1-1.2-2-2.3-2.7c-1.1-0.7-2.4-1-3.9-1c-2.4,0-4.5,0.8-6.2,2.3
			c-1.7,1.5-2.6,4.4-2.6,8.7v18.2H196.3z"/>
		<path d="M229.9,259.9c0-6.2,1.7-10.7,5.1-13.7c2.9-2.5,6.4-3.7,10.5-3.7c4.6,0,8.3,1.5,11.2,4.5c2.9,3,4.4,7.1,4.4,12.4
			c0,4.3-0.6,7.7-1.9,10.1c-1.3,2.5-3.2,4.4-5.6,5.7c-2.5,1.4-5.1,2-8,2c-4.7,0-8.4-1.5-11.3-4.5
			C231.3,269.8,229.9,265.5,229.9,259.9z M235.7,259.9c0,4.3,0.9,7.5,2.8,9.6c1.9,2.1,4.2,3.2,7,3.2c2.8,0,5.1-1.1,7-3.2
			c1.9-2.1,2.8-5.4,2.8-9.8c0-4.1-0.9-7.2-2.8-9.4c-1.9-2.1-4.2-3.2-7-3.2c-2.8,0-5.2,1.1-7,3.2
			C236.6,252.4,235.7,255.6,235.7,259.9z"/>
		<path d="M280,271.5l0.8,5c-1.6,0.3-3,0.5-4.3,0.5c-2,0-3.6-0.3-4.8-1c-1.1-0.6-1.9-1.5-2.4-2.6c-0.5-1.1-0.7-3.3-0.7-6.7v-19.2
			h-4.1v-4.4h4.1V235l5.6-3.4v11.6h5.7v4.4h-5.7v19.5c0,1.6,0.1,2.6,0.3,3.1c0.2,0.5,0.5,0.8,1,1.1c0.4,0.3,1.1,0.4,1.9,0.4
			C278.2,271.7,279,271.7,280,271.5z"/>
		<path d="M285.5,276.6v-46h5.6v16.5c2.6-3.1,6-4.6,10-4.6c2.5,0,4.6,0.5,6.4,1.5c1.8,1,3.1,2.3,3.9,4c0.8,1.7,1.2,4.2,1.2,7.5v21.1
			H307v-21.1c0-2.8-0.6-4.9-1.8-6.2c-1.2-1.3-3-1.9-5.2-1.9c-1.7,0-3.2,0.4-4.7,1.3c-1.5,0.9-2.5,2-3.2,3.5
			c-0.6,1.5-0.9,3.5-0.9,6.1v18.2H285.5z"/>
		<path d="M344.1,265.8l5.8,0.7c-0.9,3.4-2.6,6.1-5.1,7.9c-2.5,1.9-5.7,2.8-9.5,2.8c-4.9,0-8.7-1.5-11.6-4.5
			c-2.9-3-4.3-7.2-4.3-12.6c0-5.6,1.4-10,4.3-13c2.9-3.1,6.6-4.6,11.2-4.6c4.5,0,8.1,1.5,10.9,4.5c2.8,3,4.2,7.3,4.2,12.8
			c0,0.3,0,0.8,0,1.5h-24.8c0.2,3.7,1.2,6.5,3.1,8.4c1.9,1.9,4.2,2.9,7,2.9c2.1,0,3.8-0.5,5.3-1.6
			C342.1,269.9,343.2,268.2,344.1,265.8z M325.5,256.7h18.6c-0.3-2.8-1-4.9-2.1-6.3c-1.8-2.2-4.1-3.3-7-3.3c-2.6,0-4.8,0.9-6.5,2.6
			C326.7,251.5,325.7,253.8,325.5,256.7z"/>
		<path d="M356.9,276.6v-33.3h5.1v5c1.3-2.4,2.5-3.9,3.6-4.7c1.1-0.8,2.3-1.1,3.6-1.1c1.9,0,3.8,0.6,5.8,1.8l-1.9,5.2
			c-1.4-0.8-2.8-1.2-4.1-1.2c-1.2,0-2.3,0.4-3.3,1.1c-1,0.7-1.7,1.8-2.1,3.1c-0.6,2-0.9,4.2-0.9,6.6v17.4H356.9z"/>
	</g>
	<g>
		<path d="M160.7,328.4l5.6-0.9c0.3,2.2,1.2,4,2.6,5.1c1.4,1.2,3.4,1.8,6,1.8c2.6,0,4.5-0.5,5.8-1.6c1.3-1.1,1.9-2.3,1.9-3.7
			c0-1.3-0.6-2.3-1.7-3c-0.8-0.5-2.7-1.1-5.8-1.9c-4.1-1-7-1.9-8.6-2.7c-1.6-0.8-2.8-1.8-3.6-3.2c-0.8-1.3-1.2-2.8-1.2-4.5
			c0-1.5,0.3-2.9,1-4.1c0.7-1.3,1.6-2.3,2.8-3.2c0.9-0.6,2.1-1.2,3.6-1.6c1.5-0.4,3.1-0.7,4.9-0.7c2.6,0,4.9,0.4,6.9,1.1
			c2,0.8,3.4,1.8,4.4,3.1c0.9,1.3,1.6,3,1.9,5.2l-5.5,0.8c-0.3-1.7-1-3.1-2.2-4c-1.2-1-2.9-1.4-5.1-1.4c-2.6,0-4.4,0.4-5.6,1.3
			c-1.1,0.9-1.7,1.9-1.7,3c0,0.7,0.2,1.4,0.7,2c0.5,0.6,1.2,1.1,2.2,1.5c0.6,0.2,2.2,0.7,5,1.4c4,1.1,6.8,1.9,8.4,2.6
			c1.6,0.7,2.8,1.7,3.7,3c0.9,1.3,1.3,2.9,1.3,4.8c0,1.9-0.5,3.7-1.6,5.3c-1.1,1.7-2.7,2.9-4.8,3.9c-2.1,0.9-4.4,1.4-7,1.4
			c-4.3,0-7.6-0.9-9.9-2.7C162.8,334.6,161.4,331.9,160.7,328.4z"/>
		<path d="M207.4,333.3l0.8,5c-1.6,0.3-3,0.5-4.3,0.5c-2,0-3.6-0.3-4.8-1c-1.1-0.6-1.9-1.5-2.4-2.6c-0.5-1.1-0.7-3.3-0.7-6.7v-19.2
			H192V305h4.1v-8.2l5.6-3.4V305h5.7v4.4h-5.7v19.5c0,1.6,0.1,2.6,0.3,3.1c0.2,0.5,0.5,0.8,1,1.1c0.4,0.3,1.1,0.4,1.9,0.4
			C205.6,333.5,206.4,333.4,207.4,333.3z"/>
		<path d="M234.8,338.3v-4.9c-2.6,3.8-6.1,5.6-10.6,5.6c-2,0-3.8-0.4-5.5-1.1c-1.7-0.8-3-1.7-3.8-2.8c-0.8-1.1-1.4-2.5-1.7-4.2
			c-0.2-1.1-0.3-2.9-0.3-5.3V305h5.6v18.5c0,2.9,0.1,4.9,0.3,6c0.4,1.5,1.1,2.6,2.3,3.5c1.1,0.8,2.6,1.3,4.3,1.3s3.3-0.4,4.8-1.3
			c1.5-0.9,2.5-2,3.2-3.5c0.6-1.5,0.9-3.7,0.9-6.5V305h5.6v33.3H234.8z"/>
		<path d="M270.3,338.3v-4.2c-2.1,3.3-5.2,5-9.3,5c-2.7,0-5.1-0.7-7.3-2.2s-4-3.5-5.2-6.1c-1.2-2.6-1.8-5.6-1.8-9
			c0-3.3,0.6-6.3,1.7-9c1.1-2.7,2.8-4.8,5-6.2c2.2-1.4,4.7-2.2,7.4-2.2c2,0,3.8,0.4,5.4,1.3c1.6,0.8,2.8,1.9,3.8,3.3v-16.5h5.6v46
			H270.3z M252.4,321.7c0,4.3,0.9,7.5,2.7,9.6c1.8,2.1,3.9,3.2,6.4,3.2c2.5,0,4.6-1,6.3-3c1.7-2,2.6-5.1,2.6-9.2
			c0-4.6-0.9-7.9-2.6-10c-1.8-2.1-3.9-3.2-6.5-3.2c-2.5,0-4.6,1-6.3,3.1C253.3,314.1,252.4,317.3,252.4,321.7z"/>
		<path d="M307.2,327.6l5.8,0.7c-0.9,3.4-2.6,6.1-5.1,7.9s-5.7,2.8-9.5,2.8c-4.9,0-8.7-1.5-11.6-4.5s-4.3-7.2-4.3-12.6
			c0-5.6,1.4-10,4.3-13c2.9-3.1,6.6-4.6,11.2-4.6c4.5,0,8.1,1.5,10.9,4.5c2.8,3,4.2,7.3,4.2,12.8c0,0.3,0,0.8,0,1.5h-24.8
			c0.2,3.7,1.2,6.5,3.1,8.4c1.9,1.9,4.2,2.9,7,2.9c2.1,0,3.8-0.5,5.3-1.6C305.2,331.7,306.4,330,307.2,327.6z M288.7,318.5h18.6
			c-0.3-2.8-1-4.9-2.1-6.3c-1.8-2.2-4.1-3.3-7-3.3c-2.6,0-4.8,0.9-6.5,2.6C289.8,313.2,288.9,315.6,288.7,318.5z"/>
		<path d="M320.1,338.3V305h5.1v4.7c2.4-3.7,6-5.5,10.6-5.5c2,0,3.9,0.4,5.5,1.1c1.7,0.7,2.9,1.7,3.8,2.8c0.8,1.2,1.4,2.6,1.8,4.2
			c0.2,1,0.3,2.9,0.3,5.5v20.5h-5.6v-20.3c0-2.3-0.2-4-0.7-5.2c-0.4-1.1-1.2-2-2.3-2.7c-1.1-0.7-2.4-1-3.9-1c-2.4,0-4.5,0.8-6.2,2.3
			c-1.7,1.5-2.6,4.4-2.6,8.7v18.2H320.1z"/>
		<path d="M368.2,333.3l0.8,5c-1.6,0.3-3,0.5-4.3,0.5c-2,0-3.6-0.3-4.8-1c-1.1-0.6-1.9-1.5-2.4-2.6c-0.5-1.1-0.7-3.3-0.7-6.7v-19.2
			h-4.1V305h4.1v-8.2l5.6-3.4V305h5.7v4.4h-5.7v19.5c0,1.6,0.1,2.6,0.3,3.1c0.2,0.5,0.5,0.8,1,1.1c0.4,0.3,1.1,0.4,1.9,0.4
			C366.3,333.5,367.2,333.4,368.2,333.3z"/>
	</g>
</g>
</svg>
